<svg width="144" height="44" viewBox="0 0 144 44" fill="none" xmlns="http://www.w3.org/2000/svg">
<path fill-rule="evenodd" clip-rule="evenodd" d="M19.8754 28.751C18.6642 30.3935 16.9623 31.0262 14.5501 30.486C12.1378 29.9459 10.9105 27.9615 11.0181 25.5479C11.1578 22.4116 13.7193 20.6439 16.5617 21.1084C18.394 21.4078 19.5631 22.478 20.3413 23.7391L31.2 19.5486C26.3343 7.66195 8.82104 6.42725 2.07306 18.3672C-3.48369 28.1994 2.77772 39.9477 13.1672 41.7422C21.1002 43.1125 28.5086 38.9011 31.2 31.9241L19.8754 28.751Z" fill="#383A42"/>
<path d="M8.82111 17.1357C5.82418 19.3808 4.64041 22.5867 4.37578 24.9592C4.12299 27.2255 4.55034 32.4836 10.1096 35.9158C15.3506 39.1516 23.2833 37.1331 26.0165 31.3999L29.485 32.5679C26.8595 37.0337 23.029 40.3533 17.7818 41.0339C14.3405 41.4803 10.4564 40.5911 7.61054 38.6818C1.36374 34.4908 -1.1531 26.8989 2.12438 19.6108C4.04167 15.3473 7.51711 12.7348 11.6152 11.5317C18.3975 9.54046 25.7254 12.8171 29.2917 19.0089C27.9543 19.6224 27.1484 19.9631 25.7606 20.5765C24.686 18.8212 23.4617 17.6592 22.4016 16.9044C17.8412 13.6577 12.2786 14.5455 8.82111 17.1357Z" fill="#7BC0D6"/>
<path d="M7.61037 25.1477C7.7882 23.4856 8.59708 21.3026 10.6761 19.7106C14.9324 16.4513 20.1691 17.6775 22.8447 21.8448C23.8678 21.3835 24.2839 21.2146 25.2783 20.7796C22.482 16.3668 17.7333 14.3899 12.8001 15.7417C9.81933 16.5586 7.27547 18.6026 5.90455 21.5799C3.56103 26.6695 5.51061 31.873 9.92743 35.1204C15.1499 38.5171 22.4536 36.6707 25.4036 31.1755L22.901 30.3425C21.6554 32.3556 19.6119 33.6532 17.5658 34.073C15.057 34.5878 12.7178 33.7213 11.3376 32.8939C7.55966 30.2378 7.4405 26.7353 7.61037 25.1477Z" fill="#E50F3C"/>
<path d="M12.5152 21.5799C9.33832 23.8774 9.81747 28.9599 13.1674 30.6265C15.463 31.7686 18.1151 31.6194 20.0619 29.3657L22.3309 30.1353C20.9573 31.9635 19.3755 33.2944 16.7032 33.5764C10.8847 34.1786 6.37931 28.5179 8.8212 22.8154C9.79404 20.7414 11.58 19.5486 13.8407 18.7291C17.387 17.8091 20.4955 19.4264 22.3216 22.118C21.711 22.3937 21.103 22.672 20.4955 22.955C19.0412 20.7796 15.5738 19.368 12.5152 21.5799Z" fill="white"/>
<path d="M137.462 34C135.293 34 133.124 33.4196 132.218 32.9614L131.927 29.9677H132.024C133.513 30.5787 135.584 31.1285 137.365 31.1285C139.436 31.1285 140.245 30.6092 140.245 29.5706C140.245 28.532 138.918 28.196 137.3 27.8294C133.998 27.0963 132.056 26.1493 132.056 23.4C132.056 20.4064 134.581 18.6957 138.497 18.6957C139.986 18.6957 141.961 19.0012 143.158 19.4289L143.482 22.4225H143.353C141.896 21.9338 140.083 21.5977 138.821 21.5977C137.009 21.5977 136.005 22.056 136.005 23.0946C136.005 24.1332 137.3 24.4997 138.951 24.8969C142.285 25.6911 144 26.4853 144 29.2346C144 32.0755 141.896 34 137.462 34Z" fill="#4C5060"/>
<path d="M116.962 14H120.879V25.2024H120.943L126.722 19.1087H131.156L125.054 25.3245L131.56 33.664H127.061L120.943 25.6911H120.879V33.664H116.962V14Z" fill="#4C5060"/>
<path d="M110.747 34C104.986 34 102.979 30.6398 102.979 26.302C102.979 21.7199 105.633 18.6957 110.844 18.6957C112.171 18.6957 114.275 19.0136 115.311 19.4718V22.4225C114.049 21.9032 112.43 21.6588 111.168 21.6588C108.579 21.6588 106.895 22.8502 106.895 26.1798C106.895 29.5401 108.481 31.0369 111.265 31.0369C112.722 31.0369 114.113 30.762 115.311 30.2427V33.1707C114.178 33.7205 111.945 34 110.747 34Z" fill="#4C5060"/>
<path d="M95.2813 34C89.5845 34 87.2217 31.0063 87.2217 26.3326C87.2217 21.2006 90.4585 18.6957 94.7634 18.6957C99.5215 18.6957 101.399 21.3534 101.399 25.5078C101.399 25.966 101.399 26.7297 101.334 27.2185H91.3C91.4295 29.479 92.5948 31.0369 95.8639 31.0369C97.45 31.0369 99.5862 30.5787 100.719 30.0594H100.849L100.493 33.0225C99.4568 33.4807 97.4823 34 95.2813 34ZM97.6442 24.8358C97.6765 22.6974 96.9644 21.3534 94.6987 21.3534C92.9832 21.3534 91.3971 22.3003 91.3 24.8358H97.6442Z" fill="#4C5060"/>
<path d="M76.6305 34C72.8111 34 70.0275 31.8617 70.0275 26.4853C70.0275 21.7199 72.8111 18.6958 77.0837 18.6958C78.605 18.6958 79.9644 19.0623 80.9678 19.7955V14.2267H84.852V33.664H81.421L81.2268 31.8922H81.1621C80.4823 32.9614 78.961 34 76.6305 34ZM77.6987 31.1591C79.7055 31.1591 80.9678 29.9677 80.9678 28.2265V22.728C80.2557 22.0865 79.22 21.6283 77.9253 21.6283C75.7566 21.6283 74.0735 22.8502 74.0735 26.5159C74.0735 29.5706 75.3358 31.1591 77.6987 31.1591Z" fill="#4C5060"/>
<path d="M60.2919 34C54.7246 34 52.6207 30.6703 52.6207 26.4853C52.6207 21.7505 55.5015 18.6957 60.7775 18.6957C66.2153 18.6957 68.2545 22.0254 68.2545 26.0882C68.2545 30.7314 65.7298 34 60.2919 34ZM60.4214 31.098C62.9461 31.098 64.1761 29.4179 64.1761 26.3326C64.1761 23.4611 63.2051 21.6588 60.5185 21.6588C58.0262 21.6588 56.6667 23.2168 56.6667 26.3631C56.6667 29.5706 57.9614 31.098 60.4214 31.098Z" fill="#4C5060"/>
<path d="M46.7683 34C41.0068 34 39 30.6398 39 26.302C39 21.7199 41.6542 18.6957 46.8654 18.6957C48.1925 18.6957 50.0699 18.9707 51.1056 19.4289L51.3322 22.4225H51.2027C49.9404 21.9032 48.4515 21.6588 47.1891 21.6588C44.5997 21.6588 42.9165 22.8502 42.9165 26.1798C42.9165 29.5401 44.5026 31.0369 47.2862 31.0369C48.7428 31.0369 50.1346 30.762 51.3322 30.2427H51.4617L51.1704 33.1752C50.0375 33.7251 47.9659 34 46.7683 34Z" fill="#4C5060"/>
<path d="M99.8791 9.38468V7.31565H100.9C102.445 7.31565 103.316 6.47206 103.316 5.05127C103.316 3.85247 102.783 3 100.998 3H99V9.38468H99.8791ZM99.8791 6.59638V3.71928H101.016C101.984 3.71928 102.41 4.18103 102.41 5.08679C102.41 6.02806 101.922 6.59638 100.874 6.59638H99.8791Z" fill="#4C5060"/>
<path d="M105.948 9.47348C107.413 9.47348 108.062 8.51445 108.062 7.20021C108.062 5.99254 107.52 5.06015 106.081 5.06015C104.687 5.06015 103.933 5.93926 103.933 7.29789C103.933 8.50557 104.465 9.47348 105.948 9.47348ZM105.993 8.79861C105.247 8.79861 104.803 8.34573 104.803 7.27125C104.803 6.2323 105.282 5.7439 106.019 5.7439C106.845 5.7439 107.183 6.29446 107.183 7.26237C107.183 8.28357 106.747 8.79861 105.993 8.79861Z" fill="#4C5060"/>
<path d="M111.355 5.14895L110.387 8.62989H110.378L109.41 5.14895H108.513L109.836 9.38468H110.884L111.745 6.16126H111.754L112.624 9.38468H113.69L114.951 5.14895H114.143L113.184 8.62989H113.175L112.198 5.14895H111.355Z" fill="#4C5060"/>
<path d="M119.144 7.46661C119.153 7.35117 119.153 7.15582 119.153 7.0315C119.153 5.77942 118.638 5.06015 117.395 5.06015C116.214 5.06015 115.388 5.80606 115.388 7.26237C115.388 8.67429 116.045 9.47348 117.519 9.47348C118.088 9.47348 118.638 9.34028 118.922 9.1982L119.002 8.48781H118.967C118.647 8.65653 118.052 8.78973 117.626 8.78973C116.658 8.78973 116.285 8.26581 116.267 7.46661H119.144ZM117.377 5.69062C118.132 5.69062 118.336 6.17014 118.336 6.87166H116.267C116.312 5.94814 116.88 5.69062 117.377 5.69062Z" fill="#4C5060"/>
<path d="M122.605 5.12231C122.454 5.07791 122.303 5.05127 122.17 5.05127C121.566 5.05127 121.131 5.46863 120.98 5.86822L120.971 5.85934L120.927 5.14895H120.19V9.38468H121.033V6.88942C121.033 6.39214 121.424 5.89486 122.161 5.89486C122.312 5.89486 122.472 5.91262 122.65 5.95702H122.685L122.605 5.12231Z" fill="#4C5060"/>
<path d="M126.836 7.46661C126.845 7.35117 126.845 7.15582 126.845 7.0315C126.845 5.77942 126.33 5.06015 125.087 5.06015C123.906 5.06015 123.08 5.80606 123.08 7.26237C123.08 8.67429 123.737 9.47348 125.211 9.47348C125.779 9.47348 126.33 9.34028 126.614 9.1982L126.694 8.48781H126.659C126.339 8.65653 125.744 8.78973 125.318 8.78973C124.35 8.78973 123.977 8.26581 123.959 7.46661H126.836ZM125.069 5.69062C125.824 5.69062 126.028 6.17014 126.028 6.87166H123.959C124.003 5.94814 124.572 5.69062 125.069 5.69062Z" fill="#4C5060"/>
<path d="M131.531 3H130.688V5.43311C130.421 5.21111 130.022 5.06015 129.542 5.06015C128.352 5.06015 127.615 5.94814 127.615 7.29789C127.615 8.84301 128.361 9.47348 129.436 9.47348C130.111 9.47348 130.537 9.14492 130.723 8.83413L130.732 8.84301L130.785 9.38468H131.531V3ZM130.688 7.83957C130.688 8.40789 130.27 8.81637 129.631 8.81637C128.876 8.81637 128.486 8.28357 128.486 7.31565C128.486 6.13462 129.036 5.73502 129.684 5.73502C130.111 5.73502 130.466 5.90374 130.688 6.15238V7.83957Z" fill="#4C5060"/>
<path d="M134.594 3V9.38468H135.322L135.366 8.9762C135.633 9.27812 136.094 9.47348 136.574 9.47348C137.764 9.47348 138.519 8.62101 138.519 7.12918C138.519 5.62846 137.711 5.06015 136.796 5.06015C136.139 5.06015 135.695 5.28215 135.464 5.64622L135.437 5.63734V3H134.594ZM137.648 7.15582C137.648 8.13261 137.275 8.77197 136.423 8.77197C135.979 8.77197 135.615 8.53221 135.437 8.31909V6.7207C135.437 6.10798 135.89 5.72614 136.53 5.72614C137.355 5.72614 137.648 6.34774 137.648 7.15582Z" fill="#4C5060"/>
<path d="M140.744 9.45572C140.496 10.1306 140.363 10.3348 139.883 10.3348C139.652 10.3348 139.43 10.2993 139.199 10.2105H139.164L139.217 10.8588C139.359 10.9298 139.67 11.0008 140.007 11.0008C141.02 11.0008 141.215 10.326 141.597 9.21596L143 5.14895H142.148L141.135 8.38125H141.126L139.945 5.14895H138.986L140.744 9.45572Z" fill="#4C5060"/>
</svg>
